#!OML:ASF F:\VICON\USERDATA\INSTALL\rory3\rory3.ASF
:FULLY-SPECIFIED
:DEGREES
688
root 0.30928 17.9596 -0.230019 2.64804 -33.2479 -0.389366
lowerback -0.667565 -1.52121 -3.31118
upperback -0.410275 -2.01474 1.79761
thorax 0.132005 -1.00569 3.68659
lowerneck -19.4128 -3.31287 -11.3588
upperneck 25.9398 -2.41059 4.4498
head 11.9679 -1.68258 3.19059
rclavicle 1.91641e-014 -2.18663e-015
rhumerus -21.0481 44.4662 -83.4439
rradius 121.805
rwrist 32.5434
rhand -0.540076 12.3902
rfingers 7.12502
rthumb 25.073 -15.9838
lclavicle 1.91641e-014 -2.18663e-015
lhumerus -38.8692 -29.5609 100.82
lradius 90.6955
lwrist 9.64461
lhand -21.0221 28.2014
lfingers 7.12502
lthumb 5.353 58.1138
rfemur -7.89582 4.74225 13.036
rtibia 22.3022
rfoot -15.6443 -9.03768
rtoes 1.78515
lfemur 1.10898 0.96489 -21.6463
ltibia 14.0609
lfoot -11.9346 10.1967
ltoes -11.9755
689
root 0.307777 17.9646 -0.252906 2.73192 -32.957 -0.333579
lowerback -0.474125 -1.60719 -3.51995
upperback -0.513808 -2.13504 1.87007
thorax -0.0618667 -1.05995 3.88552
lowerneck -19.3099 -3.3494 -11.5175
upperneck 25.8292 -2.42512 4.46066
head 11.9096 -1.70101 3.21682
rclavicle 1.53748e-014 3.77691e-015
rhumerus -21.109 44.4733 -83.4964
rradius 121.741
rwrist 32.5808
rhand -0.923431 11.8826
rfingers 7.12502
rthumb 24.7056 -16.5422
lclavicle 1.53748e-014 3.77691e-015
lhumerus -38.8318 -29.4345 100.927
lradius 90.6884
lwrist 9.50043
lhand -21.01 28.1797
lfingers 7.12502
lthumb 5.36473 58.0918
rfemur -8.01387 4.65059 13.063
rtibia 22.3448
rfoot -15.7564 -9.20317
rtoes 2.06174
lfemur 0.897854 1.29911 -21.5359
ltibia 14.0188
lfoot -11.8195 9.55999
ltoes -11.9454
690
root 0.30572 17.9629 -0.24148 2.75891 -33.0984 -0.371123
lowerback -0.636493 -1.54918 -3.37754
upperback -0.465374 -2.05319 1.8727
thorax 0.0664418 -1.02276 3.80302
lowerneck -19.4128 -3.38573 -11.5884
upperneck 25.9552 -2.45857 4.51607
head 11.9845 -1.71884 3.24677
rclavicle 6.24308e-015 -9.54166e-015
rhumerus -21.0834 44.4914 -83.4782
rradius 121.667
rwrist 32.7173
rhand -1.17354 11.2231
rfingers 7.12502
rthumb 24.4659 -17.2344
lclavicle 6.24308e-015 -9.54166e-015
lhumerus -38.727 -29.3512 100.998
lradius 90.6303
lwrist 9.30758
lhand -21.0883 28.3449
lfingers 7.12502
lthumb 5.28909 58.2589
rfemur -8.06282 4.62513 13.0519
rtibia 22.3891
rfoot -15.6387 -9.04343
rtoes 2.33725
lfemur 0.961457 1.15831 -21.5804
ltibia 13.9822
lfoot -11.8382 9.86991
ltoes -12.2426
691
root 0.302687 17.9639 -0.254239 2.82607 -32.8554 -0.345778
lowerback -0.56707 -1.60709 -3.47283
upperback -0.499637 -2.13224 1.87643
thorax 0.00308795 -1.06029 3.86237
lowerneck -19.4948 -3.45487 -11.4471
upperneck 26.072 -2.58612 4.48094
head 12.0555 -1.76914 3.19112
rclavicle 5.33613e-015 -1.51076e-014
rhumerus -21.0898 44.4727 -83.5446
rradius 121.608
rwrist 33.0464
rhand -1.56394 10.6371
rfingers 7.12502
rthumb 24.0916 -17.8704
lclavicle 5.33613e-015 -1.51076e-014
lhumerus -38.6433 -29.2955 100.989
lradius 90.6352
lwrist 9.16936
lhand -21.0299 28.7308
lfingers 7.12502
lthumb 5.34546 58.6434
rfemur -8.11214 4.4909 13.0794
rtibia 22.3981
rfoot -15.6681 -9.12875
rtoes 2.8369
lfemur 0.79463 1.44745 -21.5002
ltibia 14.0055
lfoot -11.7615 9.43091
ltoes -13.0704
692
root 0.30003 17.9601 -0.239534 2.74225 -33.0497 -0.308378
lowerback -0.692132 -1.52827 -3.36848
upperback -0.444548 -2.02339 1.82088
thorax 0.114137 -1.00908 3.74273
lowerneck -19.4113 -3.5637 -11.2451
upperneck 26.0556 -2.77255 4.31636
head 12.0442 -1.85415 3.06374
rclavicle 1.83441e-014 -3.37934e-015
rhumerus -21.1466 44.4715 -83.6777
rradius 121.496
rwrist 33.5967
rhand -2.18477 10.1213
rfingers 7.12502
rthumb 23.4962 -18.4638
lclavicle 1.83441e-014 -3.37934e-015
lhumerus -38.6603 -29.2647 101.003
lradius 90.6743
lwrist 9.14898
lhand -21.046 29.0214
lfingers 7.12502
lthumb 5.32989 58.9344
rfemur -8.04798 4.55341 13.0023
rtibia 22.3734
rfoot -15.6393 -9.00059
rtoes 3.10632
lfemur 0.900168 1.30324 -21.6386
ltibia 14.0715
lfoot -11.794 9.85191
ltoes -13.4448
693
root 0.298096 17.9645 -0.256085 2.83446 -32.7729 -0.365031
lowerback -0.511509 -1.61294 -3.40388
upperback -0.532596 -2.14201 1.85481
thorax -0.0643138 -1.06332 3.80338
lowerneck -19.289 -3.56024 -11.2787
upperneck 26.0436 -2.79105 4.37529
head 12.018 -1.85934 3.08913
rclavicle 8.27068e-014 3.97569e-016
rhumerus -21.306 44.5416 -83.8912
rradius 121.421
rwrist 34.2562
rhand -2.55765 9.57174
rfingers 7.12502
rthumb 23.1384 -19.0587
lclavicle 8.27068e-014 3.97569e-016
lhumerus -38.7162 -29.2013 101.019
lradius 90.71
lwrist 9.14213
lhand -21.0664 29.0875
lfingers 7.12502
lthumb 5.3102 59.0009
rfemur -8.06104 4.46337 13.1254
rtibia 22.3375
rfoot -15.7495 -9.17707
rtoes 2.88565
lfemur 0.716663 1.44829 -21.4539
ltibia 14.146
lfoot -11.8064 9.35642
ltoes -13.2082
